<?xml version="1.0" encoding="UTF-8" standalone="no"?>
<svg
   xmlns:dc="http://purl.org/dc/elements/1.1/"
   xmlns:cc="http://creativecommons.org/ns#"
   xmlns:rdf="http://www.w3.org/1999/02/22-rdf-syntax-ns#"
   xmlns:svg="http://www.w3.org/2000/svg"
   xmlns="http://www.w3.org/2000/svg"
   xmlns:sodipodi="http://sodipodi.sourceforge.net/DTD/sodipodi-0.dtd"
   xmlns:inkscape="http://www.inkscape.org/namespaces/inkscape"
   inkscape:version="1.0 (4035a4fb49, 2020-05-01)"
   sodipodi:docname="logo.svg"
   id="svg8"
   version="1.1"
   viewBox="0 0 293.30951 106.58928"
   height="106.58928mm"
   width="293.30951mm">
  <defs
     id="defs2" />
  <sodipodi:namedview
     inkscape:window-maximized="1"
     inkscape:window-y="-9"
     inkscape:window-x="-9"
     inkscape:window-height="1001"
     inkscape:window-width="1920"
     fit-margin-bottom="0"
     fit-margin-right="0"
     fit-margin-left="0"
     fit-margin-top="0"
     showgrid="false"
     inkscape:document-rotation="0"
     inkscape:current-layer="layer1"
     inkscape:document-units="mm"
     inkscape:cy="105.71429"
     inkscape:cx="631.42859"
     inkscape:zoom="0.35"
     inkscape:pageshadow="2"
     inkscape:pageopacity="0.0"
     borderopacity="1.0"
     bordercolor="#666666"
     pagecolor="#ffffff"
     id="base" />
  <metadata
     id="metadata5">
    <rdf:RDF>
      <cc:Work
         rdf:about="">
        <dc:format>image/svg+xml</dc:format>
        <dc:type
           rdf:resource="http://purl.org/dc/dcmitype/StillImage" />
        <dc:title></dc:title>
      </cc:Work>
    </rdf:RDF>
  </metadata>
  <g
     transform="translate(76.351196,-120.19643)"
     id="layer1"
     inkscape:groupmode="layer"
     inkscape:label="Layer 1">
    <g
       id="g237">
      <rect
         style="opacity:0.4;fill:none;stroke-width:0.269812"
         id="rect69"
         width="293.30951"
         height="106.58928"
         x="-76.351196"
         y="120.19643" />
      <g
         transform="translate(-43.117792,109.10874)"
         id="g221"
         style="fill:#ffffff">
        <g
           id="g38"
           fill="#050402"
           transform="matrix(0.0925168,9.2559386e-4,-0.0281534,0.10466521,81.692229,49.58169)"
           style="opacity:0.4;fill:#ffffff">
          <path
             id="path14"
             d="m 230.399,62.354 c -2.052,-3.602 -6.636,-4.859 -10.237,-2.806 -0.087,0.049 -2.175,1.242 -5.494,3.419 -3.466,2.273 -4.434,6.926 -2.16,10.392 2.274,3.468 6.927,4.434 10.392,2.16 2.86,-1.875 4.647,-2.902 4.697,-2.93 3.597,-2.054 4.853,-6.635 2.802,-10.235 z"
             style="fill:#ffffff" />
          <path
             id="path16"
             d="m 292.671,414.973 c -2.525,2.964 -5.19,5.96 -7.921,8.904 -2.82,3.039 -2.642,7.788 0.397,10.607 3.031,2.813 7.782,2.649 10.607,-0.397 2.875,-3.099 5.683,-6.255 8.344,-9.38 2.688,-3.156 2.309,-7.893 -0.847,-10.581 -3.154,-2.688 -7.891,-2.309 -10.58,0.847 z"
             style="fill:#ffffff" />
          <path
             id="path18"
             d="m 331.01,369.12 c -3.74,-1.789 -8.22,-0.208 -10.01,3.531 -1.623,3.393 -3.453,6.865 -5.439,10.319 -2.066,3.594 -0.828,8.182 2.766,10.248 3.587,2.063 8.177,0.835 10.248,-2.766 2.174,-3.78 4.18,-7.589 5.967,-11.322 1.788,-3.739 0.208,-8.221 -3.532,-10.01 z"
             style="fill:#ffffff" />
          <path
             id="path20"
             d="m 346.428,337.531 c 0.191,-2.416 0.289,-4.848 0.289,-7.227 0,-2.037 -0.071,-4.09 -0.212,-6.103 -0.29,-4.135 -3.887,-7.255 -8.012,-6.962 -4.135,0.29 -7.253,3.877 -6.962,8.012 0.116,1.664 0.176,3.363 0.175,5.052 0,1.986 -0.081,4.019 -0.242,6.042 -0.328,4.132 2.756,7.748 6.889,8.076 4.121,0.328 7.747,-2.75 8.075,-6.89 z"
             style="fill:#ffffff" />
          <path
             id="path22"
             d="m 324.158,272.046 c -2.7,-3.147 -7.438,-3.509 -10.584,-0.81 -3.146,2.699 -3.509,7.438 -0.81,10.584 2.51,2.927 4.802,5.95 6.81,8.987 2.287,3.458 6.944,4.407 10.401,2.12 3.458,-2.287 4.407,-6.943 2.12,-10.401 -2.351,-3.555 -5.022,-7.081 -7.937,-10.48 z"
             style="fill:#ffffff" />
          <path
             id="path24"
             d="m 291.553,244.381 c -3.441,-2.219 -7.087,-4.419 -10.839,-6.54 -3.608,-2.04 -8.188,-0.769 -10.228,2.84 -2.04,3.609 -0.769,8.188 2.84,10.228 3.499,1.978 6.895,4.027 10.091,6.088 3.461,2.232 8.115,1.266 10.375,-2.24 2.248,-3.484 1.245,-8.129 -2.239,-10.376 z"
             style="fill:#ffffff" />
          <path
             id="path26"
             d="m 233.345,214.053 c -3.623,-2.017 -8.192,-0.713 -10.208,2.911 -2.015,3.622 -0.712,8.193 2.911,10.208 3.53,1.963 7.248,3.937 11.052,5.864 3.673,1.863 8.203,0.419 10.088,-3.301 1.874,-3.697 0.396,-8.214 -3.302,-10.088 -3.632,-1.842 -7.179,-3.724 -10.541,-5.594 z"
             style="fill:#ffffff" />
          <path
             id="path28"
             d="m 191.146,203.52 c 3.147,2.683 7.886,2.318 10.581,-0.844 2.689,-3.155 2.311,-7.892 -0.844,-10.581 -3.036,-2.588 -5.864,-5.23 -8.403,-7.851 -2.884,-2.976 -7.635,-3.053 -10.613,-0.169 -2.978,2.884 -3.053,7.636 -0.169,10.613 2.87,2.964 6.05,5.936 9.448,8.832 z"
             style="fill:#ffffff" />
          <path
             id="path30"
             d="m 166.059,135.036 c -4.132,-0.097 -7.595,3.154 -7.708,7.297 -0.015,0.536 -0.022,1.072 -0.021,1.603 0,4.107 0.433,8.243 1.288,12.293 0.858,4.07 4.853,6.649 8.893,5.795 4.056,-0.856 6.651,-4.837 5.795,-8.893 -0.64,-3.034 -0.964,-6.127 -0.964,-9.202 0,-0.396 0.005,-0.791 0.016,-1.184 0.112,-4.144 -3.156,-7.595 -7.299,-7.709 z"
             style="fill:#ffffff" />
          <path
             id="path32"
             d="m 175.635,111.067 c 3.357,2.431 8.05,1.68 10.481,-1.678 2.136,-2.949 4.559,-5.93 7.201,-8.857 2.777,-3.078 2.535,-7.823 -0.542,-10.601 -3.079,-2.779 -7.825,-2.534 -10.601,0.542 -3.002,3.326 -5.767,6.728 -8.217,10.112 -2.431,3.358 -1.68,8.05 1.678,10.482 z"
             style="fill:#ffffff" />
          <path
             id="path34"
             d="m 255.766,451.332 c -2.772,2.292 -4.422,3.548 -4.436,3.559 -3.302,2.506 -3.948,7.214 -1.442,10.516 2.514,3.313 7.222,3.941 10.517,1.442 0.076,-0.058 1.887,-1.434 4.928,-3.95 3.194,-2.642 3.642,-7.373 1,-10.567 -2.64,-3.193 -7.372,-3.642 -10.567,-1 z"
             style="fill:#ffffff" />
          <path
             id="path36"
             d="m 285.556,512 h 146.103 c 12.538,0 23.942,-7.443 29.762,-19.424 C 529.396,352.618 513.784,226.573 363.873,180.242 315.613,165.327 257.572,140.957 255.125,109.556 253.169,84.459 286.488,54.934 354.157,21.803 364.824,16.58 361.174,0 349.399,0 333.491,0 311.622,0 294.985,0 285.571,0 276.434,2.133 267.83,6.338 246.88,16.578 219.231,31.19 192.502,48.635 113.088,93.189 72.427,136.347 71.65,176.91 c -0.532,27.768 17.722,53.189 54.254,75.557 33.095,20.263 49.879,42.991 49.885,67.552 C 175.807,385.522 58.42,457.479 19.845,481.125 5.942,489.648 11.793,512 27.761,512 h 222.795 c 4.143,0 7.5,-3.358 7.5,-7.5 0,-4.142 -3.357,-7.5 -7.5,-7.5 H 84.807 C 212.537,413.031 290.88,307.35 160.515,227.524 79.245,177.763 113.052,121.083 191.962,67.029 220.618,47.434 251.573,30.98 274.417,19.814 280.953,16.62 287.873,15 294.985,15 h 19.907 c -39.736,21.44 -98.014,59.608 -95.607,104.691 0.923,17.292 10.719,33.66 29.115,48.65 19.44,15.842 49.269,30.699 88.654,44.159 68.432,23.385 105.827,62.141 111.148,115.191 0.414,4.121 4.085,7.128 8.211,6.714 4.122,-0.413 7.128,-4.089 6.715,-8.211 C 457.169,266.785 416.383,223.757 341.905,198.305 273.002,174.758 235.779,147.297 234.262,118.89 c -0.563,-10.537 3.6,-20.445 9.448,-29.217 -22.402,54.518 59.268,87.448 115.732,104.898 57.001,17.617 95.012,47.537 112.977,88.931 30.329,69.884 -2.326,156.881 -24.491,202.519 -3.289,6.771 -9.523,10.978 -16.27,10.978 h -24.286 c 25.94,-39.387 49.401,-87.489 55.149,-134.139 0.507,-4.111 -2.415,-7.854 -6.526,-8.361 -4.106,-0.498 -7.854,2.415 -8.36,6.526 -2.897,23.501 -14.37,72.127 -58.364,135.974 H 285.556 c -4.143,0 -7.5,3.358 -7.5,7.5 0,4.142 3.358,7.501 7.5,7.501 z M 56.852,497 h -29.09 c -0.086,0 -0.126,-0.009 -0.126,-0.009 h -0.003 c -0.162,-0.09 -0.577,-0.694 -0.6,-1.594 -0.026,-1.067 0.483,-1.38 0.651,-1.483 70.026,-42.926 163.122,-107.655 163.104,-173.898 -0.008,-30.135 -19.203,-57.166 -57.053,-80.341 -48.178,-29.498 -63,-63.713 -27.255,-107.149 -21.254,43.936 1.534,79.343 42.84,105.691 2.987,1.905 3.91,2.404 7.019,4.386 C 278.432,320.424 179.845,421.377 56.852,497 Z"
             style="fill:#ffffff" />
        </g>
        <text
           xml:space="preserve"
           style="font-size:10.5833px;line-height:1.25;font-family:'Rage Italic';-inkscape-font-specification:'Rage Italic, ';fill:#ffffff;stroke-width:0.264583"
           x="117.12814"
           y="89.510559"
           id="text62"><tspan
             sodipodi:role="line"
             id="tspan60"
             x="117.12814"
             y="89.510559"
             style="fill:#ffffff;stroke-width:0.264583" /></text>
        <text
           xml:space="preserve"
           style="font-style:normal;font-variant:normal;font-weight:normal;font-stretch:normal;font-size:70.5556px;line-height:1.25;font-family:'Great Sejagad';-inkscape-font-specification:'Great Sejagad';fill:#ffffff;stroke-width:0.264583"
           x="-21.71413"
           y="83.050301"
           id="text12"><tspan
             sodipodi:role="line"
             id="tspan10"
             x="-21.71413"
             y="83.050301"
             style="font-style:normal;font-variant:normal;font-weight:normal;font-stretch:normal;font-size:70.5556px;font-family:'Great Sejagad';-inkscape-font-specification:'Great Sejagad';fill:#ffffff;stroke-width:0.264583">Quiet Lanes</tspan></text>
      </g>
    </g>
  </g>
</svg>
